<?xml version="1.0" encoding="UTF-8"?>
<svg id="Layer_2" xmlns="http://www.w3.org/2000/svg" xmlns:xlink="http://www.w3.org/1999/xlink" viewBox="0 0 2199.48 1698.34">
  <defs>
    <style>
      .cls-1 {
        fill: url(#New_Gradient_Swatch_7-16);
      }

      .cls-2 {
        fill: url(#New_Gradient_Swatch_7-3);
      }

      .cls-3 {
        fill: #c49a6c;
      }

      .cls-4 {
        fill: url(#New_Gradient_Swatch_7);
      }

      .cls-5 {
        fill: url(#New_Gradient_Swatch_7-18);
      }

      .cls-6 {
        fill: url(#New_Gradient_Swatch_7-6);
      }

      .cls-7 {
        fill: url(#New_Gradient_Swatch_7-4);
      }

      .cls-8 {
        fill: url(#New_Gradient_Swatch_7-7);
      }

      .cls-9 {
        fill: url(#New_Gradient_Swatch_7-15);
      }

      .cls-10 {
        fill: url(#New_Gradient_Swatch_7-10);
      }

      .cls-11 {
        fill: url(#New_Gradient_Swatch_7-9);
      }

      .cls-12 {
        fill: url(#New_Gradient_Swatch_7-13);
      }

      .cls-13 {
        fill: url(#New_Gradient_Swatch_7-14);
      }

      .cls-14 {
        fill: url(#New_Gradient_Swatch_7-11);
      }

      .cls-15 {
        fill: url(#New_Gradient_Swatch_7-17);
      }

      .cls-16 {
        fill: url(#New_Gradient_Swatch_7-8);
      }

      .cls-17 {
        fill: url(#linear-gradient);
      }

      .cls-18 {
        fill: url(#New_Gradient_Swatch_7-5);
      }

      .cls-19 {
        fill: url(#New_Gradient_Swatch_7-2);
        fill-rule: evenodd;
      }

      .cls-20 {
        fill: #c2b59b;
      }

      .cls-21 {
        fill: url(#New_Gradient_Swatch_7-12);
      }
    </style>
    <linearGradient id="linear-gradient" x1="602.59" y1="444.78" x2="1227.04" y2="444.78" gradientUnits="userSpaceOnUse">
      <stop offset="0" stop-color="#753016"/>
      <stop offset=".17" stop-color="#b2822c"/>
      <stop offset=".32" stop-color="#d8a42f"/>
      <stop offset=".42" stop-color="#fdf499"/>
      <stop offset=".55" stop-color="#d8a42f"/>
      <stop offset=".88" stop-color="#b4b071"/>
      <stop offset="1" stop-color="#d8a42f"/>
    </linearGradient>
    <linearGradient id="New_Gradient_Swatch_7" data-name="New Gradient Swatch 7" x1="600.95" y1="444.66" x2="1228.69" y2="444.66" gradientUnits="userSpaceOnUse">
      <stop offset="0" stop-color="#753016"/>
      <stop offset=".17" stop-color="#b2822c"/>
      <stop offset=".32" stop-color="#d8a42f"/>
      <stop offset=".42" stop-color="#fdf499"/>
      <stop offset=".55" stop-color="#d8a42f"/>
      <stop offset=".88" stop-color="#fdf499"/>
      <stop offset="1" stop-color="#d8a42f"/>
    </linearGradient>
    <linearGradient id="New_Gradient_Swatch_7-2" data-name="New Gradient Swatch 7" x1="958.89" y1="717.28" x2="1533.77" y2="717.28" xlink:href="#New_Gradient_Swatch_7"/>
    <linearGradient id="New_Gradient_Swatch_7-3" data-name="New Gradient Swatch 7" x1="957.25" y1="716.47" x2="1535.24" y2="716.47" xlink:href="#New_Gradient_Swatch_7"/>
    <linearGradient id="New_Gradient_Swatch_7-4" data-name="New Gradient Swatch 7" x1="957.25" y1="717.28" x2="1535.25" y2="717.28" xlink:href="#New_Gradient_Swatch_7"/>
    <linearGradient id="New_Gradient_Swatch_7-5" data-name="New Gradient Swatch 7" x1="0" y1="1370.97" x2="152.23" y2="1370.97" xlink:href="#New_Gradient_Swatch_7"/>
    <linearGradient id="New_Gradient_Swatch_7-6" data-name="New Gradient Swatch 7" x1="179.41" y1="1370.77" x2="335.73" y2="1370.77" xlink:href="#New_Gradient_Swatch_7"/>
    <linearGradient id="New_Gradient_Swatch_7-7" data-name="New Gradient Swatch 7" x1="333.49" y1="1368.89" x2="425.72" y2="1368.89" xlink:href="#New_Gradient_Swatch_7"/>
    <linearGradient id="New_Gradient_Swatch_7-8" data-name="New Gradient Swatch 7" x1="437.61" y1="1369.8" x2="584.54" y2="1369.8" xlink:href="#New_Gradient_Swatch_7"/>
    <linearGradient id="New_Gradient_Swatch_7-9" data-name="New Gradient Swatch 7" x1="602.64" y1="1369.85" x2="713.57" y2="1369.85" xlink:href="#New_Gradient_Swatch_7"/>
    <linearGradient id="New_Gradient_Swatch_7-10" data-name="New Gradient Swatch 7" x1="734.68" y1="1369.5" x2="885.6" y2="1369.5" xlink:href="#New_Gradient_Swatch_7"/>
    <linearGradient id="New_Gradient_Swatch_7-11" data-name="New Gradient Swatch 7" x1="1045.67" y1="1370.03" x2="1159.34" y2="1370.03" xlink:href="#New_Gradient_Swatch_7"/>
    <linearGradient id="New_Gradient_Swatch_7-12" data-name="New Gradient Swatch 7" x1="1183.95" y1="1369.85" x2="1294.88" y2="1369.85" xlink:href="#New_Gradient_Swatch_7"/>
    <linearGradient id="New_Gradient_Swatch_7-13" data-name="New Gradient Swatch 7" x1="1306.94" y1="1378.38" x2="1469.11" y2="1378.38" xlink:href="#New_Gradient_Swatch_7"/>
    <linearGradient id="New_Gradient_Swatch_7-14" data-name="New Gradient Swatch 7" x1="1491.94" y1="1369.85" x2="1602.87" y2="1369.85" xlink:href="#New_Gradient_Swatch_7"/>
    <linearGradient id="New_Gradient_Swatch_7-15" data-name="New Gradient Swatch 7" x1="1625.05" y1="1370.11" x2="1782.35" y2="1370.11" xlink:href="#New_Gradient_Swatch_7"/>
    <linearGradient id="New_Gradient_Swatch_7-16" data-name="New Gradient Swatch 7" x1="1759.16" y1="1360.12" x2="1921.36" y2="1360.12" xlink:href="#New_Gradient_Swatch_7"/>
    <linearGradient id="New_Gradient_Swatch_7-17" data-name="New Gradient Swatch 7" x1="1910.43" y1="1369.57" x2="2065.23" y2="1369.57" xlink:href="#New_Gradient_Swatch_7"/>
    <linearGradient id="New_Gradient_Swatch_7-18" data-name="New Gradient Swatch 7" x1="2088.54" y1="1369.85" x2="2199.48" y2="1369.85" xlink:href="#New_Gradient_Swatch_7"/>
  </defs>
  <g id="Layer_1-2" data-name="Layer_1">
    <g>
      <g>
        <g>
          <path class="cls-17" d="M1227.04,640.22c0,83.26-32.31,145.33-96.9,186.18-64.6,40.87-131.27,61.29-199.95,61.29-78.97,0-151.01-19.46-216.09-58.41-65.12-38.91-102.29-101.95-111.52-189.07V73.57c0,.78.51-2.11,1.55-8.68,1.01-6.54,4.6-13.88,10.76-21.97,6.15-8.1,15.64-16.2,28.46-24.29,12.81-8.1,31-13.68,54.59-16.76v638.35c7.17,104.85,83.57,166.51,229.16,185.02,134.33-22.35,202.51-84.02,204.57-185.02V73.57c0,.78.51-2.11,1.53-8.68,1.02-6.54,4.63-13.88,10.78-21.97,6.15-8.1,15.63-16.2,28.45-24.29,12.8-8.1,31-13.68,54.61-16.76v638.35Z"/>
          <path class="cls-4" d="M930.2,889.33c-78.92,0-151.9-19.72-216.93-58.63-65.28-39-103.06-103.03-112.31-190.3V73.57s1.31,0,1.31,0l-1.19-.43c.09-.33.42-2.08,1.44-8.5,1.04-6.79,4.76-14.43,11.06-22.7,6.25-8.23,15.98-16.54,28.9-24.69,12.94-8.18,31.53-13.9,55.25-17l1.85-.24v640.22c7.06,103.29,83.59,165.02,227.48,183.36,132.64-22.11,200.93-83.82,202.97-183.39V73.57h1.32l-1.2-.43c.07-.23.33-1.52,1.42-8.5,1.05-6.78,4.78-14.41,11.1-22.7,6.24-8.23,15.96-16.54,28.87-24.69,12.94-8.18,31.54-13.9,55.28-17l1.85-.24v640.22c0,83.47-32.86,146.57-97.67,187.57-64.56,40.84-132.13,61.54-200.83,61.54ZM604.22,73.79v566.43c9.13,86.02,46.38,149.21,110.72,187.66,64.51,38.6,136.93,58.16,215.25,58.16,68.07,0,135.05-20.52,199.07-61.03,63.79-40.35,96.14-102.52,96.14-184.8V3.74c-22.37,3.08-39.9,8.56-52.1,16.27-12.59,7.94-22.01,15.98-28.02,23.89-5.97,7.86-9.49,14.99-10.46,21.23-.74,4.8-1.14,7.34-1.5,8.68v566.4c-2.07,101.47-71.37,164.25-205.95,186.63l-.23.04-.23-.03c-145.82-18.54-223.4-81.29-230.59-186.54V3.74c-22.35,3.08-39.87,8.56-52.08,16.27-12.59,7.94-22.02,15.98-28.04,23.89-5.96,7.84-9.47,14.98-10.44,21.23-.75,4.77-1.15,7.31-1.53,8.66Z"/>
        </g>
        <g>
          <path class="cls-19" d="M1465.93,714.43c101.97-157.56,48.99-328.34-112.1-373.35-41.2-2.71-82.42-5.08-123.66-7.01.02.51.04,1.02.04,1.54v68.86c33.83,2.22,67.24,5.74,100.17,11.84,122.09,22.6,157.85,159.63,65.85,242.7-47.68,43.05-50.8,66.37,3.13,102.84,60.34,40.81,66.44,104.03,48.64,168.84-18.05,65.6-67.11,100.48-132.56,103.38-91.11,4.05-182.53,1.01-284.2,1.01V396.87c33.45,1.9,66.63,2.73,99.48,3.6v-64.87c0-1.33.07-2.65.18-3.95-18.26-.28-36.52-.59-54.77-.58-76.66.02-106.02.07-117.25,28.22v744.19h396.23c62.11-13.81,115.47-45.3,149.17-112.78,49.74-99.53,36.27-194.27-38.36-276.28Z"/>
          <path class="cls-2" d="M1126.23,398.72c-30.98-.83-63.01-1.68-94.9-3.48l-1.73-.1v641.58h1.65c31.19,0,61.59.28,90.97.56,28.76.28,55.92.54,83.2.54,42.79,0,77.77-.68,110.1-2.11,68.74-3.04,116.34-40.19,134.06-104.58,21.1-76.83,4.51-134.24-49.3-170.64-25.91-17.51-37.9-31.6-38.88-45.66-1.04-14.8,9.37-30.61,35.93-54.6,44.43-40.1,62.13-95.24,47.35-147.48-14.39-50.84-57.01-87.51-114.01-98.05-33.19-6.15-66.54-9.67-100.47-11.89v3.28c33.74,2.21,66.9,5.72,99.87,11.83,55.74,10.31,97.4,46.1,111.44,95.72,14.43,51.01-2.91,104.9-46.38,144.15-27.4,24.75-38.13,41.34-37.01,57.26,1.06,15.17,13.5,30.02,40.31,48.15,52.51,35.53,68.66,91.73,47.97,167.05-17.3,62.91-63.85,99.21-131.04,102.18-32.28,1.44-67.22,2.1-109.96,2.1-27.28,0-54.42-.25-83.17-.53-28.88-.28-58.73-.56-89.37-.57V398.61c31.36,1.74,62.81,2.57,93.26,3.39,1.53.04,3.06.08,4.58.12v-3.28c-1.5-.04-2.99-.08-4.49-.12Z"/>
          <path class="cls-7" d="M1467.98,714.26c51.76-80.56,65.43-168.98,37.49-242.76-24.5-64.73-78.2-111.61-151.2-132l-.33-.06c-43.31-2.85-84.18-5.17-123.85-7.03.07,1.06.12,2.12.12,3.19v.1c39.49,1.85,80.21,4.16,123.34,7,71.89,20.13,124.74,66.28,148.86,129.96,27.69,73.12,13.89,160.92-37.86,240.87l-.69,1.06.84.94c74,81.34,87.17,176.25,38.1,274.45-29.83,59.75-78.22,96.34-147.88,111.87h-394.4V359.61c10.92-26.88,39.54-26.88,115.89-26.9,16.9,0,34.1.27,50.73.53,1.2.02,2.42.04,3.63.06.05-1.1.15-2.19.27-3.27-1.28-.02-2.58-.04-3.86-.06-16.65-.26-33.85-.53-51.07-.53-77.95.02-107.11.03-118.77,29.26l-.12,746.44h398.04l.18-.03c70.79-15.74,119.95-52.91,150.28-113.64,49.55-99.15,36.49-194.98-37.76-277.19Z"/>
        </g>
      </g>
      <g>
        <g>
          <g>
            <path class="cls-3" d="M120.91,1306.36c-2.07-3.23-4.98-5.13-8.73-5.7v-.22h35.77v.22c-3.74.57-6.65,2.47-8.73,5.7-2.09,3.23-3.12,7.72-3.12,13.46l.22,61.17c1.14,19.25-3.31,34.11-13.35,44.59-10.35,10.76-25.27,16.14-44.81,16.14-41.35,0-62.03-19.45-62.03-58.36l.22-63.55h-.22v-.2c0-5.75-1.04-10.25-3.13-13.47-2.07-3.23-4.98-5.13-8.72-5.7v-.22h42.87v.22c-3.74.57-6.65,2.69-8.73,6.35-2.09,3.66-3.28,9.66-3.56,17.98v54.92c0,17.95,3.69,31.09,11.1,39.41,7.39,8.32,19.34,12.49,35.85,12.49,28.3,0,42.44-16.28,42.44-48.89l-.22-62.89c0-5.73-1.04-10.23-3.13-13.46Z"/>
            <path class="cls-18" d="M78.16,1446c-43.99,0-66.3-21.08-66.3-62.64l.2-59.53-.2-4.01c0-5.08-.82-8.84-2.44-11.35-1.42-2.21-3.25-3.41-5.78-3.79l-3.63-.57v-7.94l4.28-.22h47.15v7.94l-3.63.79c-2.43.37-4.23,1.72-5.67,4.23-1.19,2.09-2.67,6.57-2.99,16.01v54.79c0,16.78,3.38,29.1,10.01,36.57,6.52,7.34,17.5,11.05,32.66,11.05,26.04,0,38.16-14.17,38.16-44.61l-.22-62.88c0-4.9-.82-8.64-2.44-11.15-1.42-2.21-3.25-3.41-5.77-3.79l-3.64-.55v-7.96l4.28-.22h40.05v7.96l-3.64.77c-2.52.38-4.35,1.59-5.77,3.79-1.62,2.51-2.44,6.25-2.44,11.13l.22,61.16c1.2,20.16-3.69,36.24-14.55,47.57-11.14,11.6-27.25,17.47-47.89,17.47ZM20.23,1315.53h.19l.2,4.29-.22,63.55c0,36.39,18.89,54.07,57.75,54.07,18.23,0,32.26-4.98,41.72-14.84,9.14-9.53,13.24-23.45,12.17-41.37l-.22-61.41c0-6.2,1.14-11.26,3.39-15.11h-10.3c2.26,3.84,3.39,8.91,3.39,15.09l.22,62.88c0,43.96-25.41,53.18-46.72,53.18-17.7,0-30.85-4.68-39.05-13.92-8.08-9.09-12.18-23.32-12.18-42.25v-54.92c.32-9.26,1.66-15.79,4.11-20.11.03-.05.07-.12.1-.17h-17.78c1.74,2.96,2.82,6.65,3.22,11.03Z"/>
          </g>
          <g>
            <path class="cls-3" d="M331.45,1301.29c-3.74.58-6.65,2.47-8.73,5.72-2.09,3.22-3.12,7.72-3.12,13.46l.43,76.47c0,15.93.22,28.78.64,38.54,0,2.59-.42,4.38-1.29,5.4h-1.94c-13.07-13.35-49.47-47.89-109.19-103.61l-.65,65.7v16.36c0,5.75,1.04,10.23,3.12,13.45,2.07,3.24,4.98,5.15,8.73,5.72v.22h-35.77v-.22c3.74-.57,6.65-2.47,8.72-5.72,2.09-3.22,3.13-7.7,3.13-13.45v-18.95l.65-79.04c0-9.34-.15-16.23-.43-20.68h.65l108.12,98.21c1.14,1.29,1.94,1.94,2.37,1.94.57,0,.85-.94.85-2.81l-.22-77.54c0-5.73-1.04-10.23-3.13-13.46-2.07-3.24-4.98-5.13-8.73-5.72v-.22h35.77v.22Z"/>
            <path class="cls-6" d="M321.34,1445.15h-5.7l-1.25-1.29c-12.35-12.64-46.63-45.19-101.95-96.84l-.55,72.3c0,4.88.82,8.62,2.44,11.13,1.42,2.22,3.25,3.43,5.77,3.81l3.64.55v7.96l-4.28.22h-40.05v-7.96l3.64-.77c2.52-.38,4.35-1.59,5.77-3.79,1.62-2.52,2.44-6.27,2.44-11.15v-18.95l.65-79.07c0-9.18-.15-16.05-.42-20.38l-.3-4.55h6.22l1.87,1.1,104.18,94.63-.2-71.64c0-4.9-.82-8.64-2.44-11.15-1.42-2.21-3.25-3.41-5.78-3.81l-3.63-.55v-7.96l4.28-.22h40.05v7.96l-3.63.77c-2.53.4-4.36,1.61-5.78,3.79-1.62,2.52-2.44,6.27-2.44,11.15l.43,76.43c0,15.76.21,28.68.63,38.39,0,3.93-.73,6.52-2.32,8.38l-1.29,1.49ZM196.42,1434.44h10.3c-2.26-3.84-3.39-8.92-3.39-15.11v-16.36l.74-75.45,7.09,6.62c54.91,51.21,89.44,83.9,105.16,99.53-.38-9.44-.57-21.84-.57-36.74l-.43-76.43c0-6.22,1.14-11.3,3.39-15.14h-10.3c2.26,3.84,3.39,8.92,3.39,15.11l.22,77.54c0,6.38-3.59,7.09-5.13,7.09-2.16,0-3.79-1.35-5.58-3.39l-100.94-91.66c.06,3.28.09,7.05.09,11.3l-.65,97.99c0,6.18-1.14,11.26-3.39,15.11Z"/>
          </g>
          <g>
            <path class="cls-3" d="M416.09,1299.36c-3.88.3-7.1,1.47-9.69,3.56-2.57,2.07-4.88,4.7-6.89,7.86v108.34c0,4.03,1.07,7.4,3.23,10.13,1.44,2.16,3.23,3.98,5.38,5.48,2.16,1.52,4.66,2.56,7.54,3.13.28.3.37.5.22.65-.57.43-2.37.57-5.38.43-18.52-.72-32.81-.72-42.85,0-2.16.13-3.59-.15-4.31-.87,4.88-.43,9.01-2.19,12.38-5.28,3.38-3.08,5.2-6.7,5.5-10.86v-104.46c0-2.87-.59-5.38-1.74-7.54-1.14-2.88-2.69-5.35-4.63-7.44-1.94-2.07-4.04-3.12-6.35-3.12,1.15-.28,9.26-.47,24.34-.54,15.08-.07,22.83.1,23.27.54Z"/>
            <path class="cls-8" d="M412.52,1443.26c-.65,0-1.4-.02-2.22-.07-18.22-.68-32.49-.7-42.35,0l-1.3.05c-2.81,0-4.87-.7-6.32-2.14l-6.57-6.49,9.19-.82c3.96-.35,7.19-1.72,9.88-4.18,2.56-2.32,3.9-4.95,4.12-8v-104.16c0-2.17-.41-3.98-1.24-5.53-1.15-2.79-2.42-4.83-3.99-6.52-1.47-1.59-2.54-1.77-3.23-1.77h-35l33.97-8.42c.89-.22,2.23-.55,25.35-.67l5.82-.02c18.69,0,19,.32,20.49,1.8l6.6,6.6-9.3.7c-3.03.22-5.42,1.07-7.33,2.61-1.93,1.55-3.71,3.51-5.3,5.82v107.05c0,3.06.75,5.5,2.31,7.47,1.34,1.99,2.77,3.44,4.48,4.63,1.67,1.19,3.61,1.97,5.92,2.44l1.3.27,3.87,3.98-2.77,3.63c-1.74,1.35-3.39,1.74-6.38,1.74ZM385.89,1434.12c4.68,0,9.81.07,15.39.22-.77-.85-1.47-1.77-2.11-2.74-2.55-3.19-3.94-7.49-3.94-12.49v-109.58l.67-1.05c1.25-1.97,2.62-3.78,4.1-5.4h-1.38l-5.77.02c-4.99.02-8.93.05-12.04.1,1.03,1.59,1.91,3.29,2.64,5.13,1.29,2.34,2.04,5.55,2.04,9.13v104.46c-.33,4.73-2.04,8.77-5.11,12.23,1.77-.03,3.61-.03,5.51-.03Z"/>
          </g>
          <g>
            <path class="cls-3" d="M580.21,1300.66c-.13,13.34-.28,24.75-.42,34.23h-.87c-6.45-9.61-11.92-16-16.36-19.15-5.6-4.03-15.23-6.03-28.86-6.03h-8.19c-2.57.28-4.01.85-4.3,1.72-.3.43-.43,1-.43,1.72l-.22,105.97c0,4.03,1.07,7.4,3.23,10.13,1.44,2.16,3.24,3.98,5.38,5.48,2.16,1.52,4.66,2.56,7.54,3.13.3.3.37.5.22.65-.57.43-2.36.57-5.38.43-18.52-.72-32.81-.72-42.85,0-2.16.13-3.59-.15-4.31-.87,4.88-.43,9.01-2.19,12.39-5.28,3.38-3.08,5.2-6.7,5.5-10.86l-.22-108.77c0-1.44-.72-2.51-2.16-3.23h-11.42c-13.64,0-23.27,2.01-28.87,6.02-4.45,3.17-9.91,9.56-16.36,19.17h-.87c-.15-9.48-.28-20.89-.43-34.25l59.23.22,79.04-.42Z"/>
            <path class="cls-16" d="M533.57,1443.26c-.66,0-1.39-.02-2.23-.07-18.22-.68-32.49-.7-42.35,0l-1.3.05c-2.82,0-4.88-.7-6.33-2.16l-6.47-6.47,9.12-.82c3.97-.35,7.2-1.72,9.86-4.16,2.57-2.34,3.91-4.96,4.13-8.02l-.23-107.42h-9.29c-12.66,0-21.53,1.75-26.37,5.21-4.03,2.88-9.18,8.96-15.31,18.08l-1.27,1.89h-7.35l-.07-4.21c-.15-9.48-.28-20.91-.43-34.26l-.04-4.34,63.57.23,83.35-.45-.05,4.34c-.13,13.35-.28,24.79-.42,34.26l-.07,4.21h-7.35l-1.27-1.89c-6.14-9.13-11.29-15.21-15.3-18.07-4.85-3.48-13.72-5.23-26.38-5.23h-8.19c-.3.03-.55.08-.75.13l.08,105.01c0,3.04.75,5.48,2.31,7.45,1.34,1.97,2.77,3.44,4.48,4.65,1.67,1.17,3.61,1.96,5.93,2.42l1.27.25,3.94,3.94-2.81,3.68c-1.93,1.5-3.89,1.74-6.38,1.74ZM506.93,1434.12c4.68,0,9.81.07,15.4.22-.76-.85-1.47-1.77-2.11-2.72-2.55-3.21-3.94-7.5-3.94-12.5l.22-105.98c0-1.37.29-2.59.88-3.64,1.56-3.34,5.94-3.84,7.66-4.04l8.67-.02c14.69,0,24.95,2.24,31.36,6.83,3.18,2.26,6.69,5.83,10.62,10.81.08-5.53.14-11.58.22-18.12l-74.69.4-54.94-.2c.07,6.55.15,12.6.22,18.15,3.93-5,7.45-8.59,10.65-10.85,6.4-4.59,16.65-6.82,31.34-6.82h12.42l.9.45c2.87,1.44,4.53,4.01,4.53,7.05l.22,108.76c-.33,4.75-2.04,8.79-5.11,12.25,1.77-.03,3.61-.03,5.52-.03Z"/>
          </g>
          <g>
            <path class="cls-3" d="M702.99,1439.15c-1.02.13-2.52.2-4.53.2-10.91-.57-24.84-.85-41.78-.85-12.35,0-28.93.07-49.76.22v-.22c3.74-.57,6.65-2.47,8.72-5.72,2.09-3.22,3.13-7.7,3.13-13.45l.22-98.21h-.22v-.22c0-5.75-1.04-10.23-3.13-13.47-2.07-3.23-4.98-5.13-8.72-5.7v-.22l39.41-.22c10.63,0,20.47-.13,29.52-.43h1.5c6.32-.13,12.2-.42,17.67-.85,4.6-.28,6.89,0,6.89.85v3.46l.22,18.74h-.22c-.28-1.87-1-3.53-2.16-4.96-1.15-1.42-3.01-2.69-5.6-3.76-2.57-1.09-6.03-1.94-10.33-2.59-4.31-.64-9.85-1.1-16.6-1.4-6.02-.13-14.36-.2-24.97-.2-2.31,0-3.81.35-4.53,1.07-.28.43-.43,1.5-.43,3.23v43.94c0,1.72,1,2.59,3.02,2.59,3.73,0,17.3.07,40.7.22,5.75,0,9.91-1.34,12.5-4,2.57-2.66,4.16-5.85,4.73-9.58h.22c-.15,5.6-.07,17.15.22,34.67h-.22c-.57-3.73-2.47-6.64-5.7-8.71-3.24-2.09-7.72-3.12-13.47-3.12-9.04-.57-22.4-.79-40.06-.65-1.29,0-1.94.5-1.94,1.5v45.88c0,6.47,3.81,10.48,11.42,12.07,1.87.28,8.41.43,19.61.43,5.17,0,9.76-.5,13.79-1.52,8.61-2.44,14.96-5.13,19.05-8.07,4.1-2.94,6.72-6.29,7.86-10.01l.22.22-4.29,27.78-.22,1.29-1.72-.2Z"/>
            <path class="cls-11" d="M708.24,1444.1l-5.27-.64c-1.1.1-2.61.17-4.51.17-10.96-.57-24.94-.85-41.78-.85-12.34,0-28.91.07-49.72.22l-4.31.02v-7.97l3.64-.77c2.51-.38,4.34-1.59,5.77-3.79,1.62-2.52,2.44-6.27,2.44-11.15l.2-94.12-.2-4.09c0-5.1-.82-8.84-2.44-11.37-1.42-2.21-3.26-3.41-5.78-3.79l-3.63-.57v-7.92l4.26-.23,39.41-.22c10.6,0,20.39-.13,29.39-.43h1.65c6.13-.13,11.94-.42,17.32-.84,1.32-.08,2.42-.13,3.35-.13,5.41,0,8.16,1.77,8.16,5.25l.27,26.47h-7.99l-.79-3.63c-.17-1.12-.58-2.09-1.27-2.94-.47-.58-1.54-1.5-3.89-2.49-2.25-.94-5.38-1.71-9.33-2.31-4.14-.62-9.58-1.07-16.14-1.35-5.92-.13-14.21-.2-24.79-.2-.26,0-.48,0-.69.02h0v42.24c5.28.03,18.39.1,39.48.23,4.48,0,7.66-.9,9.4-2.69,1.96-2.02,3.13-4.39,3.57-7.25l.57-3.63h8.06l.1,4.38c-.14,5.45-.07,17.07.22,34.5l.07,4.35h-8.02l-.77-3.63c-.38-2.52-1.59-4.35-3.79-5.77-2.52-1.62-6.27-2.44-11.15-2.44-7.42-.47-17.45-.68-30.07-.68l-7.66.03v43.1c0,3.08.95,6.42,8.01,7.87.71.1,4.38.35,18.74.35,4.81,0,9.09-.47,12.74-1.39,7.97-2.26,13.94-4.76,17.62-7.4,3.29-2.37,5.4-5,6.26-7.79l2.08-6.8,6.57,6.57-.12,2.36-5.21,33.16ZM656.67,1434.22c17,0,31.13.28,42,.87.89-.02,1.69-.03,2.39-.07l1.67-10.83c-4.5,3.01-10.9,5.65-19.48,8.09-4.46,1.12-9.44,1.67-14.95,1.67-15.21,0-18.82-.27-20.27-.48-13.1-2.72-15.03-11.37-15.03-16.3v-45.88c0-2.77,1.96-5.78,6.22-5.78l10-.03c12.8,0,23.01.23,30.34.69,5.77-.2,10.83,1.1,14.66,3.28-.03-2.62-.06-5.03-.08-7.25-3.3,2.17-7.7,3.28-13.13,3.28-23.42-.15-36.98-.22-40.7-.22-5.05,0-7.3-3.44-7.3-6.87v-43.94c0-2.79.34-4.38,1.17-5.62,2.61-2.72,5.83-2.96,8.07-2.96,10.66,0,19.02.07,25.07.2,6.95.3,12.69.79,17.12,1.45,4.71.7,8.42,1.64,11.36,2.88.67.27,1.3.57,1.9.87l-.08-7.07c-.69,0-1.47.03-2.35.08-5.46.43-11.42.74-17.83.87h-1.6c-8.95.3-18.84.44-29.52.44l-26.71.15c1.75,2.99,2.85,6.7,3.25,11.11h.19l.2,4.28-.22,98.21c0,6.13-1.12,11.18-3.34,15.03,14.94-.08,27.26-.13,36.97-.13Z"/>
          </g>
          <g>
            <path class="cls-3" d="M738.96,1438.5c3.73-.57,6.64-2.47,8.71-5.72,2.09-3.22,3.13-7.7,3.13-13.45l.43-98.65h-.22v-.22c0-5.73-1.04-10.23-3.13-13.46-2.07-3.24-4.98-5.13-8.73-5.72v-.22c24.27-.72,44.59-1.07,60.96-1.07,24.27,0,43.72,5.82,58.38,17.45,15.21,12.05,22.83,28.56,22.83,49.54,0,24.4-8.06,42.92-24.14,55.56-15.08,11.63-34.38,17.1-57.93,16.38-5.47,0-25.56-.08-60.3-.22v-.22ZM770.39,1412.86c0,6.9,1.84,11.5,5.5,13.79,3.66,2.31,10.95,3.44,21.86,3.44,41.05,0,61.59-20.09,61.59-60.3s-20.89-60.96-62.68-60.96h-14.64c-7.76.72-11.63,2.88-11.63,6.47v97.56Z"/>
            <path class="cls-10" d="M803.32,1443.28c-1.39,0-2.78-.03-4.2-.07-4.98,0-25.42-.08-60.19-.22l-4.26-.02v-7.94l3.63-.77c2.52-.38,4.35-1.59,5.77-3.79,1.62-2.52,2.44-6.27,2.44-11.15l.42-94.72-.2-3.93c0-5.1-.82-8.84-2.44-11.35-1.42-2.21-3.25-3.41-5.78-3.81l-3.63-.55v-7.82l4.16-.35c24.19-.72,44.74-1.07,61.07-1.07,25.15,0,45.68,6.18,61.04,18.37,16.22,12.85,24.45,30.65,24.45,52.9,0,25.67-8.67,45.5-25.76,58.93-14.93,11.52-33.94,17.35-56.52,17.35ZM751.64,1434.49c26.99.1,42.85.17,47.62.17,1.45.03,2.76.07,4.06.07,20.64,0,37.89-5.23,51.26-15.54,15.1-11.88,22.46-28.95,22.46-52.18,0-19.77-6.94-34.88-21.21-46.2-13.81-10.96-32.56-16.51-55.72-16.51-13.39,0-29.63.23-48.42.74,1.85,3.01,3,6.84,3.42,11.38h.2l.19,4.29-.44,98.65c0,6.2-1.15,11.28-3.43,15.14ZM797.76,1434.37c-12.02,0-19.69-1.3-24.14-4.09-4.98-3.13-7.5-8.98-7.5-17.42v-97.56c0-6.17,5.22-9.78,15.51-10.73l.4-.02h14.64c44.43,0,66.95,21.95,66.95,65.23s-22.16,64.58-65.87,64.58ZM782.23,1313.11c-6.52.64-7.55,2.16-7.57,2.17l.02,97.58c0,5.3,1.17,8.71,3.49,10.16,1.65,1.05,6.4,2.79,19.59,2.79,38.57,0,57.31-18.32,57.31-56.03s-19.1-56.68-58.4-56.68h-14.44Z"/>
          </g>
          <g>
            <path class="cls-3" d="M1155.07,1399.72c0,13.5-5.25,23.63-15.73,30.37-6.6,4.46-15.08,7.32-25.41,8.62h-45.24l-18.74.22v-.22c3.74-.57,6.65-2.47,8.73-5.72,2.09-3.22,3.12-7.71,3.12-13.45l.22-98.43h-.22v-.22c0-5.75-1.04-10.23-3.12-13.47-2.07-3.23-4.98-5.13-8.73-5.7v-.22l53.85-.43c11.77.43,21.11,2.88,28,7.32,8.47,5.47,12.72,13.57,12.72,24.35,0,14.21-8.69,24.12-26.07,29.72-2,.57-1.94,1.07.22,1.5,24.27,4.16,36.4,16.08,36.4,35.75ZM1123.19,1334.47c0-9.19-2.37-15.79-7.1-19.82-4.61-4.16-12-6.25-22.2-6.25-8.17,0-12.57,1.24-13.14,3.68-.15.57-.22,1.29-.22,2.14v45.66h9.26c11.63,0,20.11-1.97,25.42-5.92,5.32-3.94,7.97-10.45,7.97-19.49ZM1133.52,1402.09c0-11.63-3.88-20.39-11.63-26.27-6.6-5.03-15.28-7.54-26.06-7.54-6.32,0-11.41.35-15.29,1.07v52.13c0,6.75,6.97,10.11,20.89,10.11,21.39,0,32.09-9.83,32.09-29.5Z"/>
            <path class="cls-14" d="M1045.67,1443.26v-8.22l3.64-.55c2.51-.38,4.34-1.59,5.77-3.79,1.62-2.52,2.44-6.28,2.44-11.15l.22-94.33-.22-4.09c0-5.1-.82-8.84-2.44-11.37-1.42-2.21-3.26-3.41-5.78-3.79l-3.63-.57v-7.91l4.25-.25,53.85-.44c12.69.47,22.83,3.16,30.35,8.01,9.74,6.28,14.67,15.68,14.67,27.95,0,13.04-6.33,22.95-18.82,29.55,24,7.69,29.37,24.13,29.37,37.42,0,14.99-5.95,26.42-17.68,33.98-7.06,4.75-16.24,7.89-27.2,9.26l-68.79.3ZM1065.9,1316.84h.19l.2,4.28-.22,98.43c0,6.18-1.08,11.1-3.31,14.96l25.31-.07c-7.85-2.09-11.82-6.42-11.82-12.95v-55.69l3.5-.63c2.62-.49,5.66-.82,9.19-1h-12.69v-49.94c0-1.27.12-2.32.37-3.24.64-2.77,2.79-4.45,5.63-5.43l-19.62.15c1.77,2.99,2.86,6.72,3.27,11.15ZM1116.67,1367.87c2.84,1.24,5.45,2.74,7.81,4.54,8.84,6.72,13.32,16.7,13.32,29.68s-4.25,27.28-22.36,32.12c8.45-1.25,15.84-3.84,21.5-7.67,9.33-6,13.84-14.76,13.84-26.83,0-17.42-10.75-27.75-32.84-31.52-.45-.1-.89-.2-1.28-.33ZM1084.82,1373.06v48.42c0,5.08,10.41,5.83,16.61,5.83,18.98,0,27.81-8.01,27.81-25.22,0-10.31-3.24-17.78-9.94-22.86-5.82-4.43-13.71-6.67-23.47-6.67-4.25,0-7.94.17-11.01.5ZM1095.83,1364c7.29,0,13.79,1.1,19.42,3.29-1.63-.87-2.46-2.16-2.54-3.88-.07-1.69.67-3.96,4.56-5.06,15.41-4.98,22.97-13.36,22.97-25.61,0-9.29-3.53-16.08-10.76-20.76-5.51-3.54-12.99-5.72-22.25-6.44,4.8,1.2,8.68,3.18,11.72,5.92,5.61,4.76,8.51,12.54,8.51,23s-3.27,18.13-9.71,22.92c-5.16,3.86-12.51,6.03-22.34,6.62h.41ZM1084.82,1355.6h4.98c10.65,0,18.34-1.71,22.87-5.08,4.2-3.11,6.25-8.37,6.25-16.04s-1.89-13.41-5.6-16.56c-3.88-3.49-10.38-5.23-19.42-5.23-5.87,0-8.23.69-9.06,1.04,0,.13-.02.3-.02.5v41.38Z"/>
          </g>
          <g>
            <path class="cls-3" d="M1284.29,1439.15c-1,.13-2.51.2-4.53.2-10.9-.57-24.83-.85-41.78-.85-12.35,0-28.93.07-49.76.22v-.22c3.74-.57,6.65-2.47,8.72-5.72,2.09-3.22,3.13-7.7,3.13-13.45l.22-98.21h-.22v-.22c0-5.75-1.04-10.23-3.13-13.47-2.07-3.23-4.98-5.13-8.72-5.7v-.22l39.41-.22c10.63,0,20.48-.13,29.52-.43h1.5c6.32-.13,12.21-.42,17.66-.85,4.6-.28,6.9,0,6.9.85v3.46l.22,18.74h-.22c-.3-1.87-1.02-3.53-2.16-4.96-1.15-1.42-3.03-2.69-5.6-3.76-2.59-1.09-6.03-1.94-10.34-2.59-4.31-.64-9.84-1.1-16.6-1.4-6.02-.13-14.36-.2-24.97-.2-2.31,0-3.81.35-4.53,1.07-.28.43-.43,1.5-.43,3.23v43.94c0,1.72,1,2.59,3.02,2.59,3.73,0,17.3.07,40.7.22,5.74,0,9.9-1.34,12.49-4,2.59-2.66,4.16-5.85,4.75-9.58h.2c-.13,5.6-.07,17.15.22,34.67h-.22c-.57-3.73-2.47-6.64-5.7-8.71-3.23-2.09-7.71-3.12-13.46-3.12-9.04-.57-22.4-.79-40.06-.65-1.29,0-1.94.5-1.94,1.5v45.88c0,6.47,3.81,10.48,11.41,12.07,1.87.28,8.41.43,19.61.43,5.17,0,9.76-.5,13.79-1.52,8.62-2.44,14.97-5.13,19.06-8.07,4.08-2.94,6.7-6.29,7.86-10.01l.22.22-4.31,27.78-.22,1.29-1.72-.2Z"/>
            <path class="cls-21" d="M1289.55,1444.1l-5.28-.64c-1.1.1-2.61.17-4.51.17-10.95-.57-24.93-.85-41.78-.85-12.33,0-28.91.07-49.72.22l-4.31.02v-7.97l3.64-.77c2.51-.38,4.35-1.59,5.77-3.79,1.62-2.52,2.44-6.27,2.44-11.15l.2-94.12-.2-4.09c0-5.1-.82-8.84-2.44-11.37-1.42-2.21-3.26-3.41-5.78-3.79l-3.63-.57v-7.92l4.26-.23,39.41-.22c10.6,0,20.39-.13,29.38-.43h1.65c6.13-.13,11.94-.42,17.32-.84,1.32-.08,2.41-.13,3.34-.13,5.41,0,8.17,1.77,8.17,5.25l.27,26.47h-7.99l-.79-3.63c-.18-1.12-.6-2.09-1.27-2.94-.47-.58-1.55-1.5-3.91-2.49-2.24-.94-5.38-1.71-9.32-2.31-4.14-.62-9.58-1.07-16.14-1.35-5.92-.13-14.21-.2-24.79-.2-.25,0-.48,0-.68.02h0v42.24c5.28.03,18.38.1,39.48.23,4.48,0,7.66-.9,9.4-2.69,1.96-2.02,3.12-4.39,3.58-7.25l.55-3.63h8.06l.1,4.38c-.13,5.45-.07,17.07.22,34.5l.07,4.35h-8.02l-.77-3.63c-.38-2.52-1.59-4.35-3.79-5.77-2.51-1.62-6.26-2.44-11.14-2.44-7.42-.47-17.45-.68-30.07-.68l-7.65.03v43.1c0,3.08.95,6.42,8,7.87.7.1,4.38.35,18.74.35,4.8,0,9.09-.47,12.74-1.39,7.98-2.26,13.95-4.76,17.61-7.4,3.29-2.37,5.42-5,6.27-7.79l2.09-6.8,6.57,6.57-.12,2.36-5.22,33.16ZM1237.98,1434.22c17,0,31.13.28,42.01.87.87-.02,1.69-.03,2.37-.07l1.69-10.83c-4.51,3.01-10.9,5.65-19.48,8.09-4.46,1.12-9.44,1.67-14.96,1.67-15.21,0-18.82-.27-20.26-.48-13.12-2.72-15.04-11.37-15.04-16.3v-45.88c0-2.77,1.96-5.78,6.22-5.78l10-.03c12.8,0,23,.23,30.33.69h.07c5.8,0,10.77,1.1,14.58,3.28-.03-2.62-.05-5.03-.07-7.25-3.29,2.17-7.7,3.28-13.13,3.28-23.42-.15-36.97-.22-40.7-.22-5.05,0-7.3-3.44-7.3-6.87v-43.94c0-2.79.33-4.38,1.17-5.62,2.61-2.72,5.83-2.96,8.07-2.96,10.66,0,19.02.07,25.07.2,6.95.3,12.69.79,17.13,1.45,4.71.7,8.42,1.64,11.34,2.88.69.27,1.32.57,1.92.87l-.08-7.07c-.7,0-1.49.03-2.36.08-5.45.43-11.42.74-17.83.87h-1.6c-8.96.3-18.84.44-29.52.44l-26.71.15c1.75,2.99,2.84,6.7,3.26,11.11h.18l.2,4.28-.22,98.21c0,6.13-1.12,11.18-3.34,15.03,14.94-.08,27.26-.13,36.97-.13Z"/>
          </g>
          <g>
            <path class="cls-3" d="M1434.2,1299.79h26.06l.22.22c-3.31.57-5.88,2.19-7.76,4.85-1.87,2.66-3.88,5.35-6.03,8.07-2.16,2.59-7.07,12.25-14.74,28.96-7.69,16.73-13.54,29.77-17.57,39.09-10.48,25.71-19.52,48.69-27.13,68.93-19.25-45.81-38.28-89.45-57.08-130.95-2.16-5.75-4.88-10.2-8.19-13.35-3.31-3.16-6.89-5.03-10.76-5.6v-.22l33.38-.22c6.18,16.23,21.11,51.76,44.79,106.62.59,1.15,1.22,1.72,1.94,1.72.59,0,1.15-.57,1.74-1.72l41.13-106.4Z"/>
            <path class="cls-12" d="M1387.46,1461.48l-4.16-9.91c-19.2-45.68-38.39-89.7-57.03-130.85-2.04-5.37-4.43-9.33-7.25-12.02-2.67-2.56-5.43-4.01-8.44-4.46l-3.64-.54v-7.96l4.25-.23,36.35-.24,1.07,2.78c5.9,15.51,20.19,49.57,42.49,101.29l40.16-103.83h30.77l7.09,7.07-7.91,1.64c-2.19.38-3.78,1.37-4.98,3.09-1.92,2.72-3.98,5.48-6.18,8.27-1.14,1.37-4.4,6.7-14.22,28.1-7.67,16.7-13.5,29.68-17.52,38.99-10.45,25.66-19.56,48.81-27.06,68.74l-3.78,10.06ZM1326.36,1303.97c3.12,3.44,5.75,7.97,7.81,13.49,17.25,37.99,35.03,78.71,52.87,120.94,6.74-17.62,14.57-37.42,23.38-59.02,4.06-9.44,9.93-22.5,17.63-39.28,10.43-22.71,13.69-27.91,15.36-29.92,1.59-2.02,3.14-4.08,4.61-6.12h-10.9l-40.06,103.66c-1.85,3.74-4.13,4.46-5.73,4.46-1.39,0-3.98-.54-5.77-4.09-22.78-52.73-37.14-86.85-43.89-104.23l-15.31.1Z"/>
          </g>
          <g>
            <path class="cls-3" d="M1592.29,1439.15c-1,.13-2.52.2-4.53.2-10.91-.57-24.84-.85-41.79-.85-12.35,0-28.93.07-49.76.22v-.22c3.74-.57,6.65-2.47,8.72-5.72,2.09-3.22,3.12-7.7,3.12-13.45l.22-98.21h-.22v-.22c0-5.75-1.04-10.23-3.12-13.47-2.07-3.23-4.98-5.13-8.72-5.7v-.22l39.43-.22c10.61,0,20.46-.13,29.5-.43h1.5c6.32-.13,12.2-.42,17.67-.85,4.6-.28,6.88,0,6.88.85v3.46l.22,18.74h-.22c-.28-1.87-1-3.53-2.16-4.96-1.14-1.42-3.01-2.69-5.6-3.76-2.57-1.09-6.02-1.94-10.33-2.59-4.31-.64-9.84-1.1-16.58-1.4-6.03-.13-14.37-.2-24.99-.2-2.31,0-3.81.35-4.53,1.07-.29.43-.44,1.5-.44,3.23v43.94c0,1.72,1,2.59,3.03,2.59,3.73,0,17.3.07,40.7.22,5.75,0,9.91-1.34,12.5-4,2.57-2.66,4.16-5.85,4.73-9.58h.22c-.15,5.6-.07,17.15.22,34.67h-.22c-.57-3.73-2.47-6.64-5.7-8.71-3.24-2.09-7.72-3.12-13.47-3.12-9.04-.57-22.4-.79-40.06-.65-1.29,0-1.94.5-1.94,1.5v45.88c0,6.47,3.81,10.48,11.42,12.07,1.87.28,8.41.43,19.6.43,5.17,0,9.76-.5,13.79-1.52,8.61-2.44,14.96-5.13,19.05-8.07,4.09-2.94,6.72-6.29,7.87-10.01l.2.22-4.3,27.78-.22,1.29-1.72-.2Z"/>
            <path class="cls-13" d="M1597.54,1444.1l-5.26-.64c-1.1.1-2.61.17-4.51.17-10.97-.57-24.94-.85-41.79-.85-12.33,0-28.91.07-49.72.22l-4.31.02v-7.97l3.64-.77c2.51-.38,4.34-1.59,5.77-3.79,1.62-2.52,2.44-6.27,2.44-11.15l.22-94.12-.22-4.09c0-5.1-.82-8.84-2.44-11.37-1.42-2.21-3.26-3.41-5.78-3.79l-3.63-.57v-7.92l4.26-.23,39.41-.22c10.6,0,20.39-.13,29.4-.43h1.64c6.13-.13,11.93-.42,17.32-.84,1.34-.08,2.42-.13,3.36-.13,5.42,0,8.16,1.77,8.16,5.25l.27,26.47h-7.99l-.79-3.63c-.17-1.14-.58-2.09-1.25-2.94-.49-.58-1.55-1.5-3.91-2.49-2.26-.94-5.38-1.71-9.33-2.31-4.13-.62-9.56-1.07-16.13-1.35-5.93-.13-14.22-.2-24.8-.2-.25,0-.49,0-.69.02h0v42.24c5.28.03,18.38.1,39.48.23,4.5,0,7.66-.9,9.39-2.69,1.97-2.02,3.14-4.39,3.58-7.25l.57-3.63h8.06l.1,4.4c-.15,5.45-.07,17.05.22,34.48l.08,4.35h-8.02l-.79-3.63c-.38-2.51-1.59-4.35-3.79-5.77-2.52-1.62-6.27-2.44-11.15-2.44-7.42-.47-17.45-.68-30.07-.68l-7.66.03v43.1c0,3.08.95,6.42,8.01,7.87.7.1,4.38.35,18.74.35,4.81,0,9.09-.47,12.74-1.39,7.97-2.26,13.94-4.76,17.62-7.4,3.29-2.36,5.4-4.98,6.27-7.81l2.14-6.94,6.5,6.77-.12,2.31-5.22,33.16ZM1545.98,1434.22c17,0,31.12.28,42.02.87.87-.02,1.67-.03,2.37-.07l1.67-10.83c-4.5,2.99-10.9,5.65-19.47,8.09-4.46,1.12-9.44,1.67-14.96,1.67-15.21,0-18.82-.27-20.26-.48-13.12-2.72-15.04-11.37-15.04-16.3v-45.88c0-2.77,1.96-5.78,6.22-5.78l10-.03c12.8,0,23,.23,30.33.69h.07c5.8,0,10.78,1.1,14.59,3.28-.03-2.62-.05-5.03-.07-7.25-3.29,2.17-7.69,3.28-13.14,3.28-23.42-.15-36.97-.22-40.7-.22-5.05,0-7.3-3.44-7.3-6.87v-43.94c0-2.79.33-4.38,1.17-5.62,2.62-2.72,5.83-2.96,8.07-2.96,10.66,0,19.02.07,25.09.2,6.95.3,12.69.79,17.12,1.45,4.7.7,8.41,1.64,11.35,2.88.67.27,1.3.57,1.91.87l-.08-7.07c-.69,0-1.47.03-2.34.08-5.47.43-11.43.74-17.83.87h-1.61c-8.96.3-18.84.44-29.5.44l-26.73.15c1.75,2.99,2.84,6.7,3.26,11.11h.18l.2,4.28-.22,98.21c0,6.13-1.12,11.18-3.34,15.03,14.94-.08,27.26-.13,36.97-.13Z"/>
          </g>
          <g>
            <path class="cls-3" d="M1671.77,1438.93h-.22l-18.75-.22h-4.73l-18.74.22v-.22c6.6-.87,10.48-5.88,11.63-15.08v-.87c.13-.72.22-1.79.22-3.23l.22-98.43h-.22v-.22c0-5.75-1.05-10.23-3.12-13.47-2.09-3.23-5-5.13-8.72-5.7v-.22l53.84-.43c11.78.43,21.11,2.88,28.01,7.32,8.47,5.47,12.7,13.57,12.7,24.35,0,14.21-8.91,26.41-26.71,36.6-2.01.58-3.38,1.3-4.1,2.16,28.01,40.63,55.07,62.68,81.2,66.12l7.34,1.3-34.46.22c-14.07.13-26.36-5.97-36.84-18.32-14.64-18.96-26.78-34.16-36.4-45.66-6.32,0-11.2.37-14.64,1.09l.65,43.29c0,5.75,1.04,10.23,3.13,13.45,2.07,3.24,4.98,5.15,8.73,5.72v.22ZM1702.55,1334.47c0-9.19-2.36-15.79-7.1-19.82-4.6-4.16-11.98-6.25-22.18-6.25-8.19,0-12.57,1.24-13.14,3.68-.15.57-.22,1.29-.22,2.14l-.65,52.56h8.62c12.05,0,20.84-3.12,26.37-9.38,5.53-6.25,8.29-13.89,8.29-22.93Z"/>
            <path class="cls-9" d="M1746.7,1443.43c-15.14,0-28.48-6.67-39.64-19.82-13.99-18.1-25.77-32.89-35.13-44.14-3.23.05-6,.2-8.31.45l.59,39.56c0,4.95.82,8.69,2.44,11.2,1.42,2.22,3.26,3.43,5.77,3.81l3.64.55v7.96l-4.28.22-23.7-.22-23.01.27v-8.09l3.73-.7c1.8-.23,6.62-.87,7.94-11.37l-.04-.33c.18-1.35.22-2.16.22-3.23l.2-94.33-.2-4.09c0-5.1-.82-8.84-2.46-11.37-1.41-2.21-3.24-3.41-5.77-3.79l-3.63-.57v-7.91l4.25-.25,53.84-.44c12.7.47,22.85,3.16,30.35,8.01,9.74,6.28,14.67,15.68,14.67,27.95,0,15.76-9.68,29.32-28.8,40.28,26.19,36.9,51.56,57.21,75.48,60.35l7.5,1.34-.72,8.49-34.93.22ZM1673.91,1370.89h2.01l1.29,1.54c9.63,11.52,21.91,26.93,36.5,45.79,9.46,11.15,20.29,16.65,32.99,16.65v4.28l.4-4.28,4.43-.03c-20.26-10.15-41.03-30.54-61.97-60.89l-1.84-2.69,2.09-2.49c1.2-1.45,3.08-2.56,5.67-3.36,16.25-9.41,24.13-20.09,24.13-32.66,0-9.29-3.51-16.08-10.75-20.76-5.51-3.54-12.99-5.72-22.26-6.44,4.81,1.2,8.69,3.18,11.73,5.92,5.62,4.76,8.51,12.54,8.51,23s-3.14,18.74-9.36,25.77c-5.6,6.32-14.01,9.89-25.02,10.66.48-.02.97-.02,1.45-.02ZM1652.8,1434.44l6.15.07c-2.22-3.84-3.31-8.76-3.31-14.96l-.7-46.77,3.46-.72c2.37-.49,5.26-.82,8.74-1h-12.2l.7-56.89c0-1.22.12-2.27.35-3.19.65-2.77,2.81-4.45,5.65-5.43l-19.64.15c1.77,2.99,2.88,6.72,3.28,11.15h.18l.22,4.28-.22,98.43c0,1.81-.12,3.16-.3,4.06l.08.03c-.57,4.6-1.7,8.14-3.19,10.86l10.75-.07ZM1663.59,1362.5h4.3c10.71,0,18.52-2.67,23.18-7.94,4.85-5.48,7.2-12.07,7.2-20.09s-1.87-13.41-5.58-16.56c-3.88-3.49-10.38-5.23-19.42-5.23-5.88,0-8.24.69-9.06,1.04-.02.13-.02.3-.02.5l-.6,48.29Z"/>
          </g>
          <g>
            <path class="cls-3" d="M1794.1,1438.72h-26.06l-.22-.22c3.31-.57,5.88-2.19,7.75-4.85,1.86-2.66,3.88-5.35,6.03-8.07,2.14-2.59,7.07-12.25,14.74-28.98,7.69-16.71,13.54-29.75,17.57-39.08,10.48-25.71,19.52-48.69,27.13-68.93,19.24,45.8,38.27,89.45,57.08,130.95,2.16,5.75,4.88,10.2,8.19,13.35,3.29,3.16,6.89,5.03,10.76,5.6v.22l-33.38.22c-6.18-16.23-11.06-28.8-14.66-37.69h-61.37l-13.57,37.47ZM1864.75,1391.11c-.44-1-9.26-22.48-26.49-64.4l-27.36,66.12h54.7l-.85-1.72Z"/>
            <path class="cls-1" d="M1880.76,1443.23l-1.07-2.77c-5.57-14.64-10.08-26.27-13.54-34.93h-55.49l-13.57,37.47h-30.82l-7.1-7.1,7.92-1.62c2.19-.37,3.78-1.35,4.98-3.08,1.92-2.73,3.98-5.48,6.18-8.27,1.14-1.37,4.41-6.74,14.22-28.11,7.65-16.68,13.49-29.67,17.52-38.99,10.36-25.41,19.47-48.57,27.06-68.73l3.78-10.08,4.16,9.93c19.14,45.55,38.32,89.57,57.03,130.84,2.04,5.38,4.43,9.34,7.25,12.03,2.67,2.56,5.43,4.01,8.42,4.45l3.66.55v7.94l-4.25.25-36.35.23ZM1872,1397.11l1.02,2.52c3.39,8.41,7.92,20.07,13.62,35l15.29-.1c-3.12-3.46-5.75-7.99-7.8-13.49-17.3-38.12-35.08-78.82-52.87-120.94-6.8,17.77-14.64,37.57-23.38,59.02-4.08,9.44-9.94,22.5-17.63,39.26-10.53,22.95-13.81,28.06-15.34,29.92-1.6,2.02-3.16,4.09-4.63,6.13h10.81l13.52-37.32h-.12l33.78-81.63,3.94,9.59c16.61,40.43,26.02,63.35,26.46,64.33l3.84,7.71h-.52ZM1817.29,1388.56h41.77c-2.91-7.02-9.34-22.68-20.83-50.63l-20.94,50.63Z"/>
          </g>
          <g>
            <path class="cls-3" d="M2052.23,1378.95c-2.07,3.23-3.12,7.72-3.12,13.46v28.21c0,4.18-5.38,8.62-16.15,13.36-12.2,5.18-25.84,7.75-40.92,7.75-21.98,0-40.28-6.54-54.92-19.6-14.94-13.34-22.41-30.44-22.41-51.25v-1.52c.28-20.52,7.97-37.69,23.05-51.48,14.79-13.64,32.66-20.46,53.63-20.46,14.93,0,27.43,1.8,37.47,5.38,6.03,2.16,10.13,4.25,12.29,6.25l1.07,1.09c.28.57.5,1.07.65,1.5.72,5.32,1.07,11.2,1.07,17.65s-.28,9.91-.85,10.35h-.43c-.29-1.72-1-3.81-2.16-6.25-1.15-2.44-2.91-4.95-5.28-7.54-2.36-2.57-5.35-5.2-8.93-7.86-3.59-2.66-7.97-5.13-13.15-7.44-5.73-2.57-13.2-3.88-22.4-3.88-15.51,0-28.21,5.18-38.12,15.51-10.63,11.2-15.93,26.58-15.93,46.1v1.29c.13,18.67,5.73,33.75,16.8,45.23,10.92,11.5,24.9,17.23,42,17.23,8.76,0,16.93-1.57,24.55-4.73,7.17-3.03,10.76-6.03,10.76-9.04l-.44-25.86c0-5.73-1.04-10.23-3.11-13.46-2.09-3.24-5-5.13-8.72-5.71v-.22h42.42v.22c-3.73.58-6.64,2.47-8.72,5.71Z"/>
            <path class="cls-15" d="M1992.04,1446c-22.96,0-42.39-6.95-57.78-20.69-15.81-14.12-23.83-32.44-23.83-54.44v-1.52c.3-21.71,8.52-40.08,24.43-54.64,15.53-14.31,34.55-21.58,56.53-21.58,15.34,0,28.43,1.91,38.91,5.63,6.65,2.39,11.17,4.73,13.76,7.15l1.99,2.29c.4.79.68,1.49.89,2.09.92,6.23,1.29,12.37,1.29,18.99,0,10.28-.57,12.27-2.57,13.77l-1.14.85h-5.05l-1.04-3.59c-.22-1.3-.82-3.03-1.8-5.12-.95-2.04-2.49-4.23-4.55-6.47-2.17-2.36-4.98-4.83-8.34-7.32-3.34-2.46-7.49-4.8-12.34-6.95-5.18-2.32-12.12-3.51-20.66-3.51-14.41,0-25.87,4.65-35.03,14.19-9.78,10.31-14.74,24.82-14.74,43.14v1.29c.13,17.42,5.38,31.66,15.59,42.27,10.18,10.71,22.92,15.91,38.93,15.91,8.14,0,15.86-1.49,22.91-4.41,7.47-3.14,8.14-5.16,8.14-5.18l-.45-25.67c0-4.95-.82-8.71-2.44-11.23-1.4-2.19-3.24-3.39-5.77-3.79l-3.63-.55v-7.96l4.28-.22h46.7v7.95l-3.63.77c-2.52.4-4.36,1.6-5.77,3.79-1.64,2.53-2.46,6.29-2.46,11.15v28.21c0,6.17-5.93,11.67-18.7,17.28-12.72,5.38-27.06,8.11-42.64,8.11ZM1991.39,1301.7c-19.76,0-36.84,6.5-50.73,19.32-14.32,13.1-21.41,28.93-21.68,48.4v1.45c0,19.72,6.87,35.45,20.98,48.05,13.77,12.29,31.29,18.52,52.08,18.52,14.42,0,27.63-2.49,39.24-7.4,13.39-5.9,13.54-9.39,13.54-9.43v-28.21c0-6.17,1.15-11.25,3.39-15.11h-16.96c2.26,3.86,3.39,8.94,3.39,15.11l.44,25.77c0,6.67-7.64,10.65-13.39,13.07-8.12,3.36-16.93,5.06-26.21,5.06-18.24,0-33.41-6.23-45.11-18.55-11.77-12.23-17.82-28.43-17.97-48.15v-1.32c0-20.57,5.75-37.07,17.11-49.04,10.71-11.18,24.59-16.85,41.22-16.85,9.76,0,17.88,1.44,24.15,4.26,5.4,2.39,10.08,5.05,13.94,7.89,3.79,2.81,7,5.65,9.54,8.41.42.47.82.92,1.22,1.39-.13-4.18-.43-8.11-.9-11.7l-.57-.57c-1.07-.99-3.91-2.81-10.7-5.25-9.54-3.39-21.68-5.13-36.04-5.13Z"/>
          </g>
          <g>
            <path class="cls-3" d="M2188.89,1439.15c-1,.13-2.52.2-4.53.2-10.91-.57-24.84-.85-41.78-.85-12.35,0-28.93.07-49.76.22v-.22c3.74-.57,6.65-2.47,8.72-5.72,2.09-3.22,3.13-7.7,3.13-13.45l.22-98.21h-.22v-.22c0-5.75-1.04-10.23-3.13-13.47-2.07-3.23-4.98-5.13-8.72-5.7v-.22l39.43-.22c10.61,0,20.46-.13,29.5-.43h1.5c6.32-.13,12.2-.42,17.67-.85,4.6-.28,6.89,0,6.89.85v3.46l.22,18.74h-.22c-.28-1.87-1-3.53-2.16-4.96-1.14-1.42-3.01-2.69-5.6-3.76-2.57-1.09-6.02-1.94-10.33-2.59-4.31-.64-9.84-1.1-16.58-1.4-6.03-.13-14.37-.2-24.99-.2-2.31,0-3.81.35-4.53,1.07-.28.43-.43,1.5-.43,3.23v43.94c0,1.72,1,2.59,3.02,2.59,3.73,0,17.3.07,40.7.22,5.75,0,9.91-1.34,12.5-4,2.57-2.66,4.16-5.85,4.73-9.58h.22c-.15,5.6-.07,17.15.22,34.67h-.22c-.57-3.73-2.47-6.64-5.7-8.71-3.24-2.09-7.72-3.12-13.47-3.12-9.04-.57-22.4-.79-40.06-.65-1.29,0-1.94.5-1.94,1.5v45.88c0,6.47,3.81,10.48,11.42,12.07,1.87.28,8.41.43,19.6.43,5.17,0,9.76-.5,13.79-1.52,8.61-2.44,14.96-5.13,19.05-8.07,4.1-2.94,6.72-6.29,7.87-10.01l.2.22-4.29,27.78-.22,1.29-1.72-.2Z"/>
            <path class="cls-5" d="M2194.14,1444.1l-5.26-.64c-1.1.1-2.61.17-4.51.17-10.96-.57-24.94-.85-41.78-.85-12.33,0-28.92.07-49.72.22l-4.31.02v-7.97l3.64-.77c2.51-.38,4.34-1.59,5.77-3.79,1.62-2.52,2.44-6.27,2.44-11.15l.22-94.12-.22-4.09c0-5.1-.82-8.84-2.44-11.37-1.42-2.21-3.26-3.41-5.78-3.79l-3.63-.57v-7.92l4.26-.23,39.41-.22c10.6,0,20.39-.13,29.4-.43h1.64c6.13-.13,11.93-.42,17.32-.84,1.34-.08,2.42-.13,3.36-.13,5.42,0,8.16,1.77,8.16,5.25l.27,26.47h-7.99l-.79-3.63c-.17-1.14-.58-2.09-1.25-2.94-.48-.58-1.55-1.5-3.91-2.49-2.26-.94-5.38-1.71-9.33-2.31-4.13-.62-9.56-1.07-16.13-1.35-5.93-.13-14.22-.2-24.8-.2-.25,0-.48,0-.69.02h0v42.24c5.28.03,18.39.1,39.48.23,4.5,0,7.65-.9,9.39-2.69,1.97-2.02,3.14-4.39,3.58-7.25l.57-3.63h8.06l.1,4.4c-.15,5.45-.07,17.05.22,34.48l.08,4.35h-8.02l-.79-3.63c-.38-2.51-1.59-4.35-3.79-5.77-2.52-1.62-6.27-2.44-11.15-2.44-7.42-.47-17.45-.68-30.07-.68l-7.66.03v43.1c0,3.08.95,6.42,8.01,7.87.7.1,4.38.35,18.74.35,4.81,0,9.09-.47,12.74-1.39,7.97-2.26,13.94-4.76,17.62-7.4,3.29-2.36,5.4-4.98,6.27-7.81l2.14-6.94,6.5,6.77-.12,2.31-5.21,33.16ZM2142.58,1434.22c17,0,31.12.28,42.02.87.87-.02,1.67-.03,2.37-.07l1.67-10.83c-4.5,2.99-10.9,5.65-19.47,8.09-4.46,1.12-9.44,1.67-14.96,1.67-15.21,0-18.82-.27-20.26-.48-13.12-2.72-15.04-11.37-15.04-16.3v-45.88c0-2.77,1.96-5.78,6.22-5.78l10-.03c12.8,0,23,.23,30.33.69h.07c5.8,0,10.78,1.1,14.59,3.28-.04-2.62-.05-5.03-.07-7.25-3.29,2.17-7.69,3.28-13.14,3.28-23.42-.15-36.97-.22-40.7-.22-5.05,0-7.3-3.44-7.3-6.87v-43.94c0-2.79.33-4.38,1.17-5.62,2.62-2.72,5.83-2.96,8.07-2.96,10.66,0,19.02.07,25.09.2,6.95.3,12.69.79,17.12,1.45,4.7.7,8.41,1.64,11.35,2.88.67.27,1.3.57,1.91.87l-.08-7.07c-.68,0-1.47.03-2.34.08-5.46.43-11.43.74-17.83.87h-1.61c-8.96.3-18.84.44-29.5.44l-26.73.15c1.75,2.99,2.84,6.7,3.26,11.11h.18l.2,4.28-.22,98.21c0,6.13-1.12,11.18-3.34,15.03,14.94-.08,27.26-.13,36.97-.13Z"/>
          </g>
        </g>
        <rect class="cls-20" x="92.49" y="1522.91" width="2017.95" height=".5"/>
      </g>
    </g>
    <g>
      <path class="cls-20" d="M157.31,1698.34c-18.77-13.03-27.02-33.44-27.02-56.91v-.14c0-23.34,8.26-43.6,27.02-56.91l3.48,3.96c-11.87,10.92-19.17,30.84-19.17,53.09s7.71,42.92,19.17,53.09l-3.48,3.82Z"/>
      <path class="cls-20" d="M238.24,1613.93c-1.43-6.62-2.66-10.24-4.64-12.49-2.25-2.52-4.57-3.34-12.56-3.34h-7.16v61.21c0,10.51,1.16,11.46,12.76,12.28v4.78h-39.58v-4.78c11.19-.82,12.28-1.77,12.28-12.28v-61.21h-6.14c-9.48,0-11.87,1.3-13.65,3.62-1.84,2.12-2.93,6.35-4.5,12.21h-5.05c.55-8.8,1.3-17.81,1.57-24.63h3.34c1.98,2.93,3.48,3.34,6.96,3.34h49.75c3.41,0,4.78-.82,6.76-3.34h3.48c.14,5.59.82,16.24,1.23,24.16l-4.85.48Z"/>
      <path class="cls-20" d="M340.24,1597.42c-10.17.68-11.19,1.5-11.19,12.15v49.88c0,10.65,1.16,11.19,11.05,12.15v4.78h-37.19v-4.78c10.51-.96,11.6-1.5,11.6-12.15v-24.16h-37.46v24.16c0,10.65,1.16,11.19,10.92,12.15v4.78h-36.3v-4.78c9.76-.96,10.85-1.5,10.85-12.15v-49.88c0-10.64-1.09-11.46-11.26-12.15v-4.78h36.3v4.78c-9.35.68-10.51,1.5-10.51,12.15v19.04h37.46v-19.04c0-10.64-1.09-11.46-10.58-12.15v-4.78h36.3v4.78Z"/>
      <path class="cls-20" d="M392.51,1676.37v-4.78c7.57-1.09,8.39-2.18,6.69-7.51-1.5-4.09-3.48-9.96-5.6-15.69h-25.38c-1.57,4.09-3.21,8.67-4.64,13.85-2.12,6.89-1.5,8.26,7.71,9.35v4.78h-28.66v-4.78c8.39-1.09,10.03-2.05,14.26-12.97l25.73-66.39,6-1.5c7.78,21.77,16.04,45.92,24.16,67.62,3.89,11.05,5.6,12.28,13.99,13.24v4.78h-34.25ZM381.32,1611.68h-.41c-3.62,10.03-7.1,20.13-10.64,29.89h21.15l-10.1-29.89Z"/>
      <path class="cls-20" d="M434.33,1676.37v-4.78c9.76-.82,11.05-1.64,11.05-12.28v-49.61c0-10.78-1.3-11.6-11.05-12.28v-4.78h36.3v4.78c-9.76.68-10.92,1.5-10.92,12.28v49.61c0,10.78,1.16,11.46,10.92,12.28v4.78h-36.3Z"/>
      <path class="cls-20" d="M544.73,1655.01c-.89,4.98-3.55,17.74-4.64,21.36h-60.12v-4.78c10.64-.82,11.94-1.64,11.94-12.28v-49.61c0-10.78-1.3-11.6-11.19-12.28v-4.78h36.71v4.78c-10.03.68-11.19,1.5-11.19,12.28v49.75c0,6.28.61,8.8,3.28,9.96,2.18,1.09,6,1.36,10.44,1.36,5.73,0,10.24-.68,13.17-4.03,2.18-2.66,4.57-6.76,6.69-12.9l4.91,1.16Z"/>
      <path class="cls-20" d="M600.48,1676.37v-4.78c7.57-1.09,8.39-2.18,6.69-7.51-1.5-4.09-3.48-9.96-5.6-15.69h-25.38c-1.57,4.09-3.21,8.67-4.64,13.85-2.12,6.89-1.5,8.26,7.71,9.35v4.78h-28.66v-4.78c8.39-1.09,10.03-2.05,14.26-12.97l25.73-66.39,6-1.5c7.78,21.77,16.04,45.92,24.16,67.62,3.89,11.05,5.6,12.28,13.99,13.24v4.78h-34.26ZM589.29,1611.68h-.41c-3.62,10.03-7.1,20.13-10.64,29.89h21.15l-10.1-29.89Z"/>
      <path class="cls-20" d="M728.89,1597.28c-6.96.41-9.76,2.25-10.44,7.37-.55,3.96-.96,9.96-.96,21.29v51.52h-6.07l-51.52-64.69h-.27v29.89c0,10.92.55,17.06.96,20.88.55,5.73,3.34,7.64,12.15,8.05v4.78h-31.46v-4.78c7.17-.41,10.24-2.32,10.78-7.78.55-4.09,1.09-10.24,1.09-21.15v-27.5c0-8.67-.14-10.24-2.46-13.31-2.39-3.07-5.46-4.03-10.92-4.57v-4.64h21.77l48.93,59.57h.41v-26.27c0-11.33-.55-17.33-.96-21.15-.68-5.12-3.62-6.96-12.42-7.51v-4.64h31.39v4.64Z"/>
      <path class="cls-20" d="M773.17,1592.64c16.1,0,28.11,3.07,36.37,11.05,6.14,6,10.78,15.35,10.78,27.5,0,15.69-5.87,27.02-15.69,34.39-9.21,7.44-22.04,10.78-37.87,10.78h-31.18v-4.78c10.37-.82,11.6-1.5,11.6-12.28v-49.61c0-10.78-1.09-11.6-10.44-12.28v-4.78h36.44ZM761.71,1658.62c0,9.08,2.8,12.01,11.74,12.01,19.17,0,30.5-15.08,30.5-37.33,0-12.42-4.03-22.93-11.6-28.52-5.32-4.71-12.28-6.82-20.54-6.82-4.91,0-7.57.82-8.67,1.71-1.09,1.09-1.43,2.93-1.43,6.96v52Z"/>
      <path class="cls-20" d="M862.08,1641.57c0,23.34-8.19,43.33-26.95,56.77l-3.48-3.82c11.87-10.58,18.97-30.84,18.97-53.09s-7.92-43.33-18.97-53.22l3.48-3.82c18.77,13.44,26.95,33.57,26.95,57.05v.14Z"/>
      <path class="cls-20" d="M981.96,1654.87c-1.77,6-4.91,15.49-6.96,20.13-3.48.68-14.53,3.21-23.47,3.21-32.28,0-45.99-21.97-45.99-42.51,0-26.95,20.13-44.97,49.2-44.97,9.89,0,18.7,2.46,22.31,3.34,1.16,7.1,1.98,12.69,2.66,20.54l-4.84.96c-3.96-14.4-11.87-19.11-23.2-19.11-18.77,0-29.34,17.26-29.34,36.58,0,23.47,12.96,39.3,30.3,39.3,11.19,0,18.01-6.48,24.43-19.45l4.91,1.98Z"/>
      <path class="cls-20" d="M1034.23,1590.87c22.04,0,40.81,16.85,40.81,42.72,0,27.98-19.04,44.63-42.38,44.63s-41.49-18.36-41.49-43.33c0-22.52,15.35-44.01,42.92-44.01h.14ZM1031.57,1596.26c-12.9,0-23.61,13.31-23.61,35.69s10.58,40.67,27.09,40.67c12.56,0,23.06-11.74,23.06-35.48,0-26-11.46-40.87-26.41-40.87h-.14Z"/>
      <path class="cls-20" d="M1152.54,1676.37v-4.78c10.1-1.09,10.51-1.64,10.37-13.92l-.27-50.9h-.41l-28.8,68.65h-3.82l-26.27-67.08h-.54l-1.5,35.07c-.61,10.71-.61,16.31-.27,20.54.41,5.73,3.21,6.82,11.74,7.51v4.91h-30.77v-4.91c7.1-.68,9.48-2.18,10.37-7.23.82-4.23,1.5-10.37,2.46-23.2l1.98-26.82c1.09-14.81.27-15.83-10.92-16.79v-4.78h24.77l25.59,59.03,26.27-59.03h24.57v4.78c-10.64.96-11.05,1.36-10.78,12.83l1.16,47.42c.27,12.28.68,12.83,11.05,13.92v4.78h-35.96Z"/>
      <path class="cls-20" d="M1231.62,1592.64c9.83,0,16.79,1.43,22.11,5.19,5.46,3.75,8.94,10.24,8.94,18.56,0,17.06-12.56,25.18-25.73,26.75-1.91.27-4.03.27-5.46.27l-8.94-2.39v18.42c0,10.78,1.16,11.46,12.49,12.28v4.64h-37.6v-4.64c9.76-.82,11.05-1.77,11.05-12.28v-49.61c0-11.05-1.3-11.74-10.24-12.42v-4.78h33.37ZM1222.55,1635.83c1.71.68,4.78,1.43,8.12,1.43,6.14,0,16.24-3.96,16.24-20.27,0-14.12-8.67-19.17-17.33-19.17-2.8,0-4.91.41-5.6,1.23-.95.89-1.43,2.25-1.43,4.91v31.87Z"/>
      <path class="cls-20" d="M1307.57,1676.37v-4.78c7.57-1.09,8.39-2.18,6.69-7.51-1.5-4.09-3.48-9.96-5.6-15.69h-25.38c-1.57,4.09-3.21,8.67-4.64,13.85-2.12,6.89-1.5,8.26,7.71,9.35v4.78h-28.66v-4.78c8.39-1.09,10.03-2.05,14.26-12.97l25.73-66.39,6-1.5c7.78,21.77,16.04,45.92,24.16,67.62,3.89,11.05,5.59,12.28,13.99,13.24v4.78h-34.25ZM1296.37,1611.68h-.41c-3.62,10.03-7.1,20.13-10.65,29.89h21.15l-10.1-29.89Z"/>
      <path class="cls-20" d="M1435.98,1597.28c-6.96.41-9.76,2.25-10.44,7.37-.55,3.96-.96,9.96-.96,21.29v51.52h-6.07l-51.52-64.69h-.27v29.89c0,10.92.55,17.06.96,20.88.55,5.73,3.34,7.64,12.15,8.05v4.78h-31.46v-4.78c7.16-.41,10.24-2.32,10.78-7.78.55-4.09,1.09-10.24,1.09-21.15v-27.5c0-8.67-.14-10.24-2.46-13.31-2.39-3.07-5.46-4.03-10.92-4.57v-4.64h21.77l48.93,59.57h.41v-26.27c0-11.33-.55-17.33-.96-21.15-.68-5.12-3.62-6.96-12.42-7.51v-4.64h31.39v4.64Z"/>
      <path class="cls-20" d="M1519.29,1597.42c-8.26.82-10.65,2.52-15.22,10.44-5.05,8.12-8.8,14.4-14.88,26.13-1.77,3.55-2.18,4.78-2.18,8.53v16.79c0,10.65.96,11.46,12.56,12.28v4.78h-39.24v-4.78c10.99-.82,12.15-1.5,12.15-12.28v-15.35c0-3.07-.41-4.37-2.12-7.44-4.03-7.78-8.67-16.04-15.76-28.8-4.78-8.05-6.75-9.49-13.85-10.3v-4.78h33.64v4.78c-8.53,1.09-8.19,2.52-5.87,6.96,4.64,9.21,10.1,18.9,15.29,28.11,3.75-7.44,10.3-19.31,13.51-27.23,2.25-5.46,2.25-6.89-7.37-7.85v-4.78h29.34v4.78Z"/>
      <path class="cls-20" d="M1618.77,1655.01c-.89,4.98-3.55,17.74-4.64,21.36h-60.12v-4.78c10.65-.82,11.94-1.64,11.94-12.28v-49.61c0-10.78-1.3-11.6-11.19-12.28v-4.78h36.71v4.78c-10.03.68-11.19,1.5-11.19,12.28v49.75c0,6.28.61,8.8,3.28,9.96,2.18,1.09,6,1.36,10.44,1.36,5.73,0,10.24-.68,13.17-4.03,2.18-2.66,4.57-6.76,6.69-12.9l4.91,1.16Z"/>
      <path class="cls-20" d="M1624.91,1676.37v-4.78c9.76-.82,11.05-1.64,11.05-12.28v-49.61c0-10.78-1.3-11.6-11.05-12.28v-4.78h36.3v4.78c-9.76.68-10.92,1.5-10.92,12.28v49.61c0,10.78,1.16,11.46,10.92,12.28v4.78h-36.3Z"/>
      <path class="cls-20" d="M1739.88,1676.37v-4.78c10.1-1.09,10.51-1.64,10.37-13.92l-.27-50.9h-.41l-28.8,68.65h-3.82l-26.27-67.08h-.54l-1.5,35.07c-.61,10.71-.61,16.31-.27,20.54.41,5.73,3.21,6.82,11.74,7.51v4.91h-30.77v-4.91c7.1-.68,9.48-2.18,10.37-7.23.82-4.23,1.5-10.37,2.46-23.2l1.98-26.82c1.09-14.81.27-15.83-10.92-16.79v-4.78h24.77l25.59,59.03,26.27-59.03h24.57v4.78c-10.64.96-11.05,1.36-10.78,12.83l1.16,47.42c.27,12.28.68,12.83,11.05,13.92v4.78h-35.96Z"/>
      <path class="cls-20" d="M1784.78,1676.37v-4.78c9.76-.82,11.05-1.64,11.05-12.28v-49.61c0-10.78-1.3-11.6-11.05-12.28v-4.78h36.3v4.78c-9.76.68-10.92,1.5-10.92,12.28v49.61c0,10.78,1.16,11.46,10.92,12.28v4.78h-36.3Z"/>
      <path class="cls-20" d="M1898.25,1613.93c-1.43-6.62-2.66-10.24-4.64-12.49-2.25-2.52-4.57-3.34-12.56-3.34h-7.16v61.21c0,10.51,1.16,11.46,12.76,12.28v4.78h-39.58v-4.78c11.19-.82,12.28-1.77,12.28-12.28v-61.21h-6.14c-9.49,0-11.87,1.3-13.65,3.62-1.84,2.12-2.93,6.35-4.5,12.21h-5.05c.55-8.8,1.3-17.81,1.57-24.63h3.34c1.98,2.93,3.48,3.34,6.96,3.34h49.75c3.41,0,4.78-.82,6.76-3.34h3.48c.14,5.59.82,16.24,1.23,24.16l-4.84.48Z"/>
      <path class="cls-20" d="M1978.49,1655.28c-.75,4.98-3.34,17.33-4.5,21.09h-63.6v-4.78c10.92-.96,12.15-1.64,12.15-12.28v-49.61c0-10.92-1.23-11.6-10.58-12.28v-4.78h58.96c.14,2.39.68,11.6,1.3,19.04l-5.05.68c-1.16-4.91-2.66-8.26-4.5-10.78-1.64-2.32-5.19-3.48-12.96-3.48h-7.85c-4.44,0-4.91.27-4.91,4.5v27.36h9.96c10.78,0,12.01-.82,13.72-9.62h4.84v25.86h-4.84c-1.71-9.42-2.93-9.96-13.72-9.96h-9.96v22.79c0,6,.89,8.94,3.28,10.24,2.18,1.23,6.69,1.5,12.15,1.5,7.51,0,11.74-.82,14.54-4.03,2.39-2.66,4.57-6.76,6.69-12.35l4.91.89Z"/>
      <path class="cls-20" d="M2022.43,1592.64c16.1,0,28.11,3.07,36.37,11.05,6.14,6,10.78,15.35,10.78,27.5,0,15.69-5.87,27.02-15.69,34.39-9.21,7.44-22.04,10.78-37.87,10.78h-31.18v-4.78c10.37-.82,11.6-1.5,11.6-12.28v-49.61c0-10.78-1.09-11.6-10.44-12.28v-4.78h36.44ZM2010.97,1658.62c0,9.08,2.8,12.01,11.74,12.01,19.17,0,30.5-15.08,30.5-37.33,0-12.42-4.03-22.93-11.6-28.52-5.32-4.71-12.28-6.82-20.54-6.82-4.91,0-7.57.82-8.67,1.71-1.09,1.09-1.43,2.93-1.43,6.96v52Z"/>
    </g>
  </g>
</svg>